<svg xmlns="http://www.w3.org/2000/svg" xmlns:xlink="http://www.w3.org/1999/xlink" width="500" zoomAndPan="magnify" viewBox="0 0 375 374.999991" height="500" preserveAspectRatio="xMidYMid meet" version="1.0"><defs><g/><clipPath id="35c8938788"><path d="M 68.59375 168.355469 L 106.84375 168.355469 L 106.84375 206.605469 L 68.59375 206.605469 Z M 68.59375 168.355469 " clip-rule="nonzero"/></clipPath></defs><rect x="-37.5" width="450" fill="#ffffff" y="-37.499999" height="449.999989" fill-opacity="1"/><rect x="-37.5" width="450" fill="#000000" y="-37.499999" height="449.999989" fill-opacity="1"/><g clip-path="url(#35c8938788)"><path fill="#ffffff" d="M 76.226562 199.722656 L 76.660156 200.152344 L 76.703125 200.195312 C 78.050781 201.589844 78.035156 203.839844 76.660156 205.214844 C 75.285156 206.59375 73.039062 206.605469 71.644531 205.257812 L 71.597656 205.214844 L 71.167969 204.785156 L 69.988281 203.601562 C 68.597656 202.210938 68.597656 199.933594 69.988281 198.539062 C 71.378906 197.144531 73.660156 197.144531 75.050781 198.539062 Z M 100.101562 180.128906 L 100.519531 179.707031 L 105.414062 174.8125 C 106.804688 173.421875 106.804688 171.144531 105.414062 169.746094 C 104.019531 168.355469 101.742188 168.355469 100.351562 169.746094 L 95.941406 174.164062 L 95.460938 174.644531 L 95.039062 175.0625 L 92.507812 177.59375 C 91.121094 178.988281 91.121094 181.265625 92.507812 182.660156 L 95.039062 185.191406 L 95.492188 185.640625 L 100.386719 190.535156 C 101.777344 191.925781 104.050781 191.925781 105.449219 190.535156 C 106.839844 189.144531 106.839844 186.863281 105.449219 185.472656 L 100.554688 180.574219 Z M 70.191406 169.78125 L 70.191406 169.777344 C 71.582031 168.386719 73.859375 168.386719 75.25 169.777344 L 105.378906 199.929688 C 106.777344 201.320312 106.777344 203.601562 105.378906 204.992188 C 103.988281 206.386719 101.714844 206.386719 100.320312 204.992188 L 70.191406 174.839844 C 68.800781 173.449219 68.800781 171.171875 70.191406 169.78125 Z M 70.144531 184.214844 C 71.535156 182.824219 73.8125 182.824219 75.207031 184.214844 L 78.636719 187.648438 L 86.0625 195.078125 L 90.957031 199.972656 C 92.347656 201.363281 92.347656 203.644531 90.957031 205.035156 C 89.558594 206.429688 87.285156 206.429688 85.894531 205.035156 L 81 200.140625 L 73.578125 192.710938 L 70.144531 189.28125 C 68.753906 187.886719 68.753906 185.605469 70.144531 184.214844 Z M 70.144531 184.214844 " fill-opacity="1" fill-rule="evenodd"/></g><g fill="#ffffff" fill-opacity="1"><g transform="translate(127.193171, 196.454033)"><g><path d="M 2.34375 0 L 2.34375 -22.1875 L 5 -22.1875 L 5 -12.140625 L 14.265625 -22.1875 L 17.625 -22.1875 L 9.375 -13.34375 L 17.75 0 L 14.515625 0 L 7.484375 -11.28125 L 5 -8.65625 L 5 0 Z M 2.34375 0 "/></g></g></g><g fill="#ffffff" fill-opacity="1"><g transform="translate(150.539894, 196.454033)"><g><path d="M 2.34375 0 L 2.34375 -22.1875 L 9.5 -22.1875 C 11.238281 -22.1875 12.65625 -21.898438 13.75 -21.328125 C 14.851562 -20.753906 15.664062 -19.96875 16.1875 -18.96875 C 16.71875 -17.976562 16.984375 -16.882812 16.984375 -15.6875 C 16.984375 -14.289062 16.609375 -13.03125 15.859375 -11.90625 C 15.109375 -10.789062 13.941406 -10 12.359375 -9.53125 L 17.203125 0 L 14.0625 0 L 9.5625 -9.15625 L 5 -9.15625 L 5 0 Z M 5 -11.25 L 9.3125 -11.25 C 11.019531 -11.25 12.265625 -11.660156 13.046875 -12.484375 C 13.835938 -13.304688 14.234375 -14.363281 14.234375 -15.65625 C 14.234375 -16.96875 13.847656 -18.007812 13.078125 -18.78125 C 12.304688 -19.550781 11.039062 -19.9375 9.28125 -19.9375 L 5 -19.9375 Z M 5 -11.25 "/></g></g></g><g fill="#ffffff" fill-opacity="1"><g transform="translate(174.235032, 196.454033)"><g><path d="M 2.34375 0 L 2.34375 -22.1875 L 5 -22.1875 L 5 0 Z M 2.34375 0 "/></g></g></g><g fill="#ffffff" fill-opacity="1"><g transform="translate(186.495906, 196.454033)"><g><path d="M 2.34375 0 L 2.34375 -22.1875 L 5 -22.1875 L 5 -2.125 L 15.34375 -2.125 L 15.34375 0 Z M 2.34375 0 "/></g></g></g><g fill="#ffffff" fill-opacity="1"><g transform="translate(208.037215, 196.454033)"><g><path d="M 2.34375 0 L 2.34375 -22.1875 L 5 -22.1875 L 5 -2.125 L 15.34375 -2.125 L 15.34375 0 Z M 2.34375 0 "/></g></g></g><g fill="#ffffff" fill-opacity="1"><g transform="translate(229.578525, 196.454033)"><g><path d="M 2.34375 0 L 2.34375 -22.1875 L 5 -22.1875 L 5 0 Z M 2.34375 0 "/></g></g></g><g fill="#ffffff" fill-opacity="1"><g transform="translate(241.839399, 196.454033)"><g><path d="M 7.546875 0 L 7.546875 -20 L 0.921875 -20 L 0.921875 -22.1875 L 16.828125 -22.1875 L 16.828125 -20 L 10.203125 -20 L 10.203125 0 Z M 7.546875 0 "/></g></g></g><g fill="#ffffff" fill-opacity="1"><g transform="translate(264.489294, 196.454033)"><g><path d="M 0.953125 0 L 9.125 -22.1875 L 11.953125 -22.1875 L 20.09375 0 L 17.265625 0 L 15.234375 -5.703125 L 5.796875 -5.703125 L 3.734375 0 Z M 6.59375 -7.859375 L 14.453125 -7.859375 L 10.515625 -18.828125 Z M 6.59375 -7.859375 "/></g></g></g><g fill="#ffffff" fill-opacity="1"><g transform="translate(290.433273, 196.454033)"><g><path d="M 2.34375 0 L 2.34375 -22.1875 L 5 -22.1875 L 16.828125 -4.40625 L 16.828125 -22.1875 L 19.484375 -22.1875 L 19.484375 0 L 16.828125 0 L 5 -17.78125 L 5 0 Z M 2.34375 0 "/></g></g></g><g fill="#ffffff" fill-opacity="1"><g transform="translate(317.169101, 196.454033)"><g><path d="M 2.34375 0 L 2.34375 -22.1875 L 16.0625 -22.1875 L 16.0625 -20 L 5 -20 L 5 -12.265625 L 15.109375 -12.265625 L 15.109375 -10.109375 L 5 -10.109375 L 5 -2.1875 L 16.0625 -2.1875 L 16.0625 0 Z M 2.34375 0 "/></g></g></g></svg>